<mxfile host="app.diagrams.net" agent="Mozilla/5.0 (Windows NT 10.0; Win64; x64) AppleWebKit/537.36 (KHTML, like Gecko) Chrome/139.0.0.0 Safari/537.36" version="28.2.1">
  <diagram name="ページ1" id="j8EODtQ9fnKTLU58gZXZ">
    <mxGraphModel dx="786" dy="451" grid="1" gridSize="10" guides="1" tooltips="1" connect="1" arrows="1" fold="1" page="1" pageScale="1" pageWidth="827" pageHeight="1169" math="0" shadow="0">
      <root>
        <mxCell id="0" />
        <mxCell id="1" parent="0" />
        <mxCell id="wcyLUzmbZJkHqGEiHI1c-1" value="学生" style="shape=umlActor;verticalLabelPosition=bottom;verticalAlign=top;html=1;outlineConnect=0;" vertex="1" parent="1">
          <mxGeometry x="200" y="180" width="40" height="70" as="geometry" />
        </mxCell>
        <mxCell id="wcyLUzmbZJkHqGEiHI1c-4" value="メニュー画面" style="shape=umlBoundary;whiteSpace=wrap;html=1;" vertex="1" parent="1">
          <mxGeometry x="360" y="130" width="100" height="80" as="geometry" />
        </mxCell>
        <mxCell id="wcyLUzmbZJkHqGEiHI1c-7" value="" style="html=1;verticalAlign=bottom;endArrow=block;curved=0;rounded=0;entryX=0.06;entryY=0.5;entryDx=0;entryDy=0;entryPerimeter=0;" edge="1" parent="1" source="wcyLUzmbZJkHqGEiHI1c-1" target="wcyLUzmbZJkHqGEiHI1c-4">
          <mxGeometry width="80" relative="1" as="geometry">
            <mxPoint x="240" y="200" as="sourcePoint" />
            <mxPoint x="450" y="240" as="targetPoint" />
          </mxGeometry>
        </mxCell>
        <mxCell id="wcyLUzmbZJkHqGEiHI1c-8" value="メニュー画面をクリックする" style="text;html=1;align=center;verticalAlign=middle;whiteSpace=wrap;rounded=0;" vertex="1" parent="1">
          <mxGeometry x="250" y="150" width="90" height="30" as="geometry" />
        </mxCell>
        <mxCell id="wcyLUzmbZJkHqGEiHI1c-9" value="表示" style="ellipse;shape=umlControl;whiteSpace=wrap;html=1;" vertex="1" parent="1">
          <mxGeometry x="560" y="150" width="70" height="80" as="geometry" />
        </mxCell>
        <mxCell id="wcyLUzmbZJkHqGEiHI1c-10" value="" style="endArrow=classic;html=1;rounded=0;entryX=-0.048;entryY=0.538;entryDx=0;entryDy=0;entryPerimeter=0;" edge="1" parent="1" source="wcyLUzmbZJkHqGEiHI1c-4" target="wcyLUzmbZJkHqGEiHI1c-9">
          <mxGeometry width="50" height="50" relative="1" as="geometry">
            <mxPoint x="380" y="260" as="sourcePoint" />
            <mxPoint x="430" y="210" as="targetPoint" />
          </mxGeometry>
        </mxCell>
        <mxCell id="wcyLUzmbZJkHqGEiHI1c-11" value="学生登録画面" style="shape=umlBoundary;whiteSpace=wrap;html=1;" vertex="1" parent="1">
          <mxGeometry x="360" y="250" width="100" height="80" as="geometry" />
        </mxCell>
        <mxCell id="wcyLUzmbZJkHqGEiHI1c-12" value="" style="endArrow=classic;html=1;rounded=0;exitX=-0.029;exitY=0.583;exitDx=0;exitDy=0;exitPerimeter=0;" edge="1" parent="1" source="wcyLUzmbZJkHqGEiHI1c-9" target="wcyLUzmbZJkHqGEiHI1c-11">
          <mxGeometry width="50" height="50" relative="1" as="geometry">
            <mxPoint x="510" y="180" as="sourcePoint" />
            <mxPoint x="607" y="195" as="targetPoint" />
          </mxGeometry>
        </mxCell>
        <mxCell id="wcyLUzmbZJkHqGEiHI1c-13" value="" style="endArrow=classic;html=1;rounded=0;entryX=0;entryY=0.563;entryDx=0;entryDy=0;entryPerimeter=0;" edge="1" parent="1" source="wcyLUzmbZJkHqGEiHI1c-1" target="wcyLUzmbZJkHqGEiHI1c-11">
          <mxGeometry width="50" height="50" relative="1" as="geometry">
            <mxPoint x="240" y="280" as="sourcePoint" />
            <mxPoint x="337" y="295" as="targetPoint" />
          </mxGeometry>
        </mxCell>
        <mxCell id="wcyLUzmbZJkHqGEiHI1c-14" value="学生情報を入力する" style="text;html=1;align=center;verticalAlign=middle;whiteSpace=wrap;rounded=0;" vertex="1" parent="1">
          <mxGeometry x="250" y="280" width="90" height="30" as="geometry" />
        </mxCell>
        <mxCell id="wcyLUzmbZJkHqGEiHI1c-15" value="学生情報登録" style="ellipse;shape=umlControl;whiteSpace=wrap;html=1;" vertex="1" parent="1">
          <mxGeometry x="555" y="245" width="80" height="85" as="geometry" />
        </mxCell>
        <mxCell id="wcyLUzmbZJkHqGEiHI1c-16" value="" style="endArrow=classic;html=1;rounded=0;exitX=1.007;exitY=0.442;exitDx=0;exitDy=0;exitPerimeter=0;entryX=-0.004;entryY=0.608;entryDx=0;entryDy=0;entryPerimeter=0;" edge="1" parent="1" source="wcyLUzmbZJkHqGEiHI1c-11" target="wcyLUzmbZJkHqGEiHI1c-15">
          <mxGeometry width="50" height="50" relative="1" as="geometry">
            <mxPoint x="270" y="240" as="sourcePoint" />
            <mxPoint x="560" y="370" as="targetPoint" />
          </mxGeometry>
        </mxCell>
        <mxCell id="wcyLUzmbZJkHqGEiHI1c-17" value="学生オブジェクト" style="ellipse;shape=umlEntity;whiteSpace=wrap;html=1;" vertex="1" parent="1">
          <mxGeometry x="700" y="170" width="100" height="100" as="geometry" />
        </mxCell>
        <mxCell id="wcyLUzmbZJkHqGEiHI1c-19" value="" style="endArrow=classic;startArrow=classic;html=1;rounded=0;fillColor=#f8cecc;strokeColor=#b85450;" edge="1" parent="1" source="wcyLUzmbZJkHqGEiHI1c-15" target="wcyLUzmbZJkHqGEiHI1c-17">
          <mxGeometry width="50" height="50" relative="1" as="geometry">
            <mxPoint x="380" y="260" as="sourcePoint" />
            <mxPoint x="430" y="210" as="targetPoint" />
          </mxGeometry>
        </mxCell>
        <mxCell id="wcyLUzmbZJkHqGEiHI1c-20" value="➀境界オブジェクト&lt;div&gt;➁制御オブジェクト&lt;/div&gt;&lt;div&gt;➂実体オブジェクト&lt;/div&gt;" style="text;html=1;align=center;verticalAlign=middle;whiteSpace=wrap;rounded=0;" vertex="1" parent="1">
          <mxGeometry x="230" y="360" width="130" height="50" as="geometry" />
        </mxCell>
        <mxCell id="wcyLUzmbZJkHqGEiHI1c-21" value="&lt;div style=&quot;text-align: left;&quot;&gt;&lt;span style=&quot;background-color: transparent; color: light-dark(rgb(0, 0, 0), rgb(255, 255, 255));&quot;&gt;・登録の成功失敗&lt;/span&gt;&lt;/div&gt;&lt;div&gt;・すでに生徒が存在するかもしれない&lt;/div&gt;" style="text;html=1;align=center;verticalAlign=middle;whiteSpace=wrap;rounded=0;" vertex="1" parent="1">
          <mxGeometry x="620" y="272.5" width="260" height="30" as="geometry" />
        </mxCell>
      </root>
    </mxGraphModel>
  </diagram>
</mxfile>
